# xmcd
#
# Track frame offsets: 
#        150
#        19075
#        29775
#        52680
#        66442
#        81652
#        106115
#        120227
#        136305
#        155412
#        174602
#        187892
#
# Disc length: 2907 seconds
#
# Revision: 1
# Processed by: cddbd v1.5.2PL0 Copyright (c) Steve Scherf et al.
# Submitted via: ExactAudioCopy v0.99pb5
#
DISCID=9a0b590c
DTITLE=Julian Cope - Interpreter
DYEAR=1996
DGENRE=Alternative
TTITLE0=I Come From Another Planet, Baby
TTITLE1=I've Got My TV and My Pills
TTITLE2=Planetary Sit-In
TTITLE3=Since I Lost My Head, It's Awl-right
TTITLE4=Cheap New-Age Fix
TTITLE5=The Battle For The Trees
TTITLE6=Arthur Drugstore
TTITLE7=s.p.a.c.e.r.o.c.k. with me
TTITLE8=Re-Directed Male
TTITLE9=Maid Of Constant Sorrow
TTITLE10=The Loveboat
TTITLE11=Dust
EXTD=
EXTT0=
EXTT1=
EXTT2=
EXTT3=
EXTT4=
EXTT5=
EXTT6=
EXTT7=
EXTT8=
EXTT9=
EXTT10=
EXTT11=
PLAYORDER=
